HIERARCHY
ROOT Hips
{
  OFFSET 5.72205e-005 65.662 3.42586
  CHANNELS 6 Xposition Yposition Zposition Zrotation Xrotation Yrotation
  JOINT Chest
  {
    OFFSET 0 8.7983 -4.7612
    CHANNELS 6 Xposition Yposition Zposition Zrotation Xrotation Yrotation
    JOINT Chest2
    {
      OFFSET 0 8.0291 0.4195
      CHANNELS 6 Xposition Yposition Zposition Zrotation Xrotation Yrotation
      JOINT Chest3
      {
        OFFSET 0 9.9351 -2.2114
        CHANNELS 6 Xposition Yposition Zposition Zrotation Xrotation Yrotation
        JOINT Neck
        {
          OFFSET 0 22.3885 -0.4656
          CHANNELS 6 Xposition Yposition Zposition Zrotation Xrotation Yrotation
          JOINT Head
          {
            OFFSET -0.0001 12.643 3.4389
            CHANNELS 6 Xposition Yposition Zposition Zrotation Xrotation Yrotation
            End Site
            {
              OFFSET 0.0001 17.6655 0.5274
            }
          }
        }
        JOINT LeftCollar
        {
          OFFSET 2.2603 21.606 7.4023
          CHANNELS 6 Xposition Yposition Zposition Zrotation Xrotation Yrotation
          JOINT LeftShoulder
          {
            OFFSET 13.5163 -1.1332 -5.0146
            CHANNELS 6 Xposition Yposition Zposition Zrotation Xrotation Yrotation
            JOINT LeftElbow
            {
              OFFSET -0.0995 -28.05 -0.2431
              CHANNELS 6 Xposition Yposition Zposition Zrotation Xrotation Yrotation
              JOINT LeftWrist
              {
                OFFSET 0.0679 -23.3996 -0.1402
                CHANNELS 6 Xposition Yposition Zposition Zrotation Xrotation Yrotation
                JOINT LeftFinger1
                {
                  OFFSET 0.7932 -9.069 2.5189
                  CHANNELS 6 Xposition Yposition Zposition Zrotation Xrotation Yrotation
                  JOINT LeftFinger11
                  {
                    OFFSET -0.8272 -3.3923 0.5977
                    CHANNELS 6 Xposition Yposition Zposition Zrotation Xrotation Yrotation
                    JOINT LeftFinger12
                    {
                      OFFSET -0.5649 -2.3158 0.4082
                      CHANNELS 6 Xposition Yposition Zposition Zrotation Xrotation Yrotation
                      End Site
                      {
                        OFFSET -0.4919 -1.6479 0.2673
                      }
                    }
                  }
                }
                JOINT LeftFinger2
                {
                  OFFSET 0.9159 -9.2044 0.2193
                  CHANNELS 6 Xposition Yposition Zposition Zrotation Xrotation Yrotation
                  JOINT LeftFinger21
                  {
                    OFFSET 0.0117 -4.1944 -0.0248
                    CHANNELS 6 Xposition Yposition Zposition Zrotation Xrotation Yrotation
                    JOINT LeftFinger22
                    {
                      OFFSET 0.0071 -2.3249 -0.0142
                      CHANNELS 6 Xposition Yposition Zposition Zrotation Xrotation Yrotation
                      End Site
                      {
                        OFFSET -0.1475 -2.0882 0.0028
                      }
                    }
                  }
                }
                JOINT LeftFinger3
                {
                  OFFSET 0.6113 -8.7231 -2.0637
                  CHANNELS 6 Xposition Yposition Zposition Zrotation Xrotation Yrotation
                  JOINT LeftFinger31
                  {
                    OFFSET -0.1927 -3.8059 -0.2383
                    CHANNELS 6 Xposition Yposition Zposition Zrotation Xrotation Yrotation
                    JOINT LeftFinger32
                    {
                      OFFSET -0.1091 -2.1688 -0.1362
                      CHANNELS 6 Xposition Yposition Zposition Zrotation Xrotation Yrotation
                      End Site
                      {
                        OFFSET -0.2358 -1.9176 -0.0906
                      }
                    }
                  }
                }
                JOINT LeftFinger4
                {
                  OFFSET -0.6151 -8.0947 -3.5641
                  CHANNELS 6 Xposition Yposition Zposition Zrotation Xrotation Yrotation
                  JOINT LeftFinger41
                  {
                    OFFSET -0.4882 -2.341 -0.6462
                    CHANNELS 6 Xposition Yposition Zposition Zrotation Xrotation Yrotation
                    JOINT LeftFinger42
                    {
                      OFFSET -0.3575 -1.7167 -0.4742
                      CHANNELS 6 Xposition Yposition Zposition Zrotation Xrotation Yrotation
                      End Site
                      {
                        OFFSET -0.4187 -1.5237 -0.3496
                      }
                    }
                  }
                }
                JOINT LeftFinger0
                {
                  OFFSET -1.42 -1.8761 1.4223
                  CHANNELS 6 Xposition Yposition Zposition Zrotation Xrotation Yrotation
                  JOINT LeftFinger01
                  {
                    OFFSET -1.1471 -3.4929 2.6334
                    CHANNELS 6 Xposition Yposition Zposition Zrotation Xrotation Yrotation
                    JOINT LeftFinger02
                    {
                      OFFSET -0.823 -2.3 1.6571
                      CHANNELS 6 Xposition Yposition Zposition Zrotation Xrotation Yrotation
                      End Site
                      {
                        OFFSET -0.5822 -1.6914 1.1582
                      }
                    }
                  }
                }
              }
            }
          }
        }
        JOINT RightCollar
        {
          OFFSET -2.2603 21.606 7.4023
          CHANNELS 6 Xposition Yposition Zposition Zrotation Xrotation Yrotation
          JOINT RightShoulder
          {
            OFFSET -13.5187 -1.1334 -5.0155
            CHANNELS 6 Xposition Yposition Zposition Zrotation Xrotation Yrotation
            JOINT RightElbow
            {
              OFFSET 0.0994 -28.0499 -0.2431
              CHANNELS 6 Xposition Yposition Zposition Zrotation Xrotation Yrotation
              JOINT RightWrist
              {
                OFFSET -0.0679 -23.3996 -0.1402
                CHANNELS 6 Xposition Yposition Zposition Zrotation Xrotation Yrotation
                JOINT RightFinger1
                {
                  OFFSET -0.7932 -9.0691 2.5189
                  CHANNELS 6 Xposition Yposition Zposition Zrotation Xrotation Yrotation
                  JOINT RightFinger11
                  {
                    OFFSET 0.8272 -3.3923 0.5977
                    CHANNELS 6 Xposition Yposition Zposition Zrotation Xrotation Yrotation
                    JOINT RightFinger12
                    {
                      OFFSET 0.565 -2.3158 0.4082
                      CHANNELS 6 Xposition Yposition Zposition Zrotation Xrotation Yrotation
                      End Site
                      {
                        OFFSET 0.4919 -1.6479 0.2673
                      }
                    }
                  }
                }
                JOINT RightFinger2
                {
                  OFFSET -0.916 -9.2044 0.2193
                  CHANNELS 6 Xposition Yposition Zposition Zrotation Xrotation Yrotation
                  JOINT RightFinger21
                  {
                    OFFSET -0.0117 -4.1944 -0.0248
                    CHANNELS 6 Xposition Yposition Zposition Zrotation Xrotation Yrotation
                    JOINT RightFinger22
                    {
                      OFFSET -0.0071 -2.3249 -0.0142
                      CHANNELS 6 Xposition Yposition Zposition Zrotation Xrotation Yrotation
                      End Site
                      {
                        OFFSET 0.1475 -2.0882 0.0028
                      }
                    }
                  }
                }
                JOINT RightFinger3
                {
                  OFFSET -0.6113 -8.7231 -2.0637
                  CHANNELS 6 Xposition Yposition Zposition Zrotation Xrotation Yrotation
                  JOINT RightFinger31
                  {
                    OFFSET 0.1927 -3.8059 -0.2383
                    CHANNELS 6 Xposition Yposition Zposition Zrotation Xrotation Yrotation
                    JOINT RightFinger32
                    {
                      OFFSET 0.1091 -2.1688 -0.1362
                      CHANNELS 6 Xposition Yposition Zposition Zrotation Xrotation Yrotation
                      End Site
                      {
                        OFFSET 0.2358 -1.9176 -0.0906
                      }
                    }
                  }
                }
                JOINT RightFinger4
                {
                  OFFSET 0.6151 -8.0947 -3.564
                  CHANNELS 6 Xposition Yposition Zposition Zrotation Xrotation Yrotation
                  JOINT RightFinger41
                  {
                    OFFSET 0.4882 -2.341 -0.6462
                    CHANNELS 6 Xposition Yposition Zposition Zrotation Xrotation Yrotation
                    JOINT RightFinger42
                    {
                      OFFSET 0.3574 -1.7166 -0.4742
                      CHANNELS 6 Xposition Yposition Zposition Zrotation Xrotation Yrotation
                      End Site
                      {
                        OFFSET 0.4187 -1.5237 -0.3496
                      }
                    }
                  }
                }
                JOINT RightFinger0
                {
                  OFFSET 1.4199 -1.8761 1.4221
                  CHANNELS 6 Xposition Yposition Zposition Zrotation Xrotation Yrotation
                  JOINT RightFinger01
                  {
                    OFFSET 1.1472 -3.4929 2.6336
                    CHANNELS 6 Xposition Yposition Zposition Zrotation Xrotation Yrotation
                    JOINT RightFinger02
                    {
                      OFFSET 0.8229 -2.3 1.6571
                      CHANNELS 6 Xposition Yposition Zposition Zrotation Xrotation Yrotation
                      End Site
                      {
                        OFFSET 0.5822 -1.6914 1.1582
                      }
                    }
                  }
                }
              }
            }
          }
        }
      }
    }
  }
  JOINT RightHip
  {
    OFFSET -9.412 3.9771 -0.7758
    CHANNELS 6 Xposition Yposition Zposition Zrotation Xrotation Yrotation
    JOINT RightKnee
    {
      OFFSET -0.7531 -40.938 0
      CHANNELS 6 Xposition Yposition Zposition Zrotation Xrotation Yrotation
      JOINT RightAnkle
      {
        OFFSET 0 -40.1986 0
        CHANNELS 6 Xposition Yposition Zposition Zrotation Xrotation Yrotation
        JOINT RightToe
        {
          OFFSET 0 -4.4182 9.239
          CHANNELS 6 Xposition Yposition Zposition Zrotation Xrotation Yrotation
          End Site
          {
            OFFSET 0 0 6.1981
          }
        }
      }
    }
  }
  JOINT LeftHip
  {
    OFFSET 9.4119 3.9773 -0.7758
    CHANNELS 6 Xposition Yposition Zposition Zrotation Xrotation Yrotation
    JOINT LeftKnee
    {
      OFFSET 0.7532 -40.9383 0
      CHANNELS 6 Xposition Yposition Zposition Zrotation Xrotation Yrotation
      JOINT LeftAnkle
      {
        OFFSET 0 -40.1986 0
        CHANNELS 6 Xposition Yposition Zposition Zrotation Xrotation Yrotation
        JOINT LeftToe
        {
          OFFSET 0 -4.4182 9.239
          CHANNELS 6 Xposition Yposition Zposition Zrotation Xrotation Yrotation
          End Site
          {
            OFFSET 0 0 6.1981
          }
        }
      }
    }
  }
}
MOTION
Frames:	4
Frame Time:	0.0333333
5.72205e-005 65.662 3.42586 0 0 -0 0 8.7983 -4.7612 0 0 -0 0 8.0291 0.4195 0 0 -0 0 9.9351 -2.2114 0 0 -0 0 22.3885 -0.4656 0 0 -0 -0.0001 12.643 3.4389 0 0 -0 2.2603 21.606 7.4023 0 0 -12.5014 13.5163 -1.1332 -5.0146 88.1196 14.2451 10.6914 -0.0995 -28.05 -0.2431 -0.00160068 -0.00239207 0.000740045 0.0679 -23.3996 -0.1402 -8.4365e-005 7.00714e-005 -9.52055e-007 0.7932 -9.069 2.5189 9.93923e-017 -1.98785e-016 -1.59028e-015 -0.8272 -3.3923 0.5977 9.93923e-017 -5.96354e-016 -1.59028e-015 -0.5649 -2.3158 0.4082 -9.93923e-017 -5.96354e-016 -1.59028e-015 0.9159 -9.2044 0.2193 9.93923e-017 -1.98785e-016 -1.59028e-015 0.0117 -4.1944 -0.0248 -0.0128176 0.00232552 8.52707e-005 0.0071 -2.3249 -0.0142 9.93923e-017 5.96354e-016 -0 0.6113 -8.7231 -2.0637 9.93923e-017 -1.98785e-016 -1.59028e-015 -0.1927 -3.8059 -0.2383 -0.0160551 0.00299681 0.000857156 -0.1091 -2.1688 -0.1362 -2.48481e-016 0 3.18055e-015 -0.6151 -8.0947 -3.5641 9.93923e-017 -1.98785e-016 -1.59028e-015 -0.4882 -2.341 -0.6462 -0.0125865 0.0031206 0.00282719 -0.3575 -1.7167 -0.4742 0 1.98785e-016 -0 -1.42 -1.8761 1.4223 9.93923e-017 -1.98785e-016 -1.59028e-015 -1.1471 -3.4929 2.6334 9.93923e-017 -5.96354e-016 -1.59028e-015 -0.823 -2.3 1.6571 -9.93923e-017 -5.96354e-016 -1.59028e-015 -2.2603 21.606 7.4023 -0.865644 0.16582 7.03859 -13.5187 -1.1334 -5.0155 -88.0329 10.2057 -10.5567 0.0994 -28.0499 -0.2431 0.0015593 -0.00248883 -0.000788628 -0.0679 -23.3996 -0.1402 7.87605e-005 4.10553e-005 1.24965e-005 -0.7932 -9.0691 2.5189 -3.97569e-016 -7.95139e-016 3.18055e-015 0.8272 -3.3923 0.5977 -1.98785e-016 -3.97569e-016 3.18055e-015 0.565 -2.3158 0.4082 -1.98785e-016 0 3.18055e-015 -0.916 -9.2044 0.2193 -3.97569e-016 -7.95139e-016 3.18055e-015 -0.0117 -4.1944 -0.0248 0.0129473 0.00231697 -8.70038e-005 -0.0071 -2.3249 -0.0142 9.93923e-017 -7.95139e-016 1.59028e-015 -0.6113 -8.7231 -2.0637 -3.97569e-016 -7.95139e-016 3.18055e-015 0.1927 -3.8059 -0.2383 0.0163314 0.00303369 -0.000872333 0.1091 -2.1688 -0.1362 3.97569e-016 7.95139e-016 -3.18055e-015 0.6151 -8.0947 -3.564 -3.97569e-016 -7.95139e-016 3.18055e-015 0.4882 -2.341 -0.6462 0.0145763 0.00367772 -0.00326275 0.3574 -1.7166 -0.4742 9.93923e-017 -3.97569e-016 -0 1.4199 -1.8761 1.4221 -3.97569e-016 -7.95139e-016 3.18055e-015 1.1472 -3.4929 2.6336 -1.98785e-016 -3.97569e-016 3.18055e-015 0.8229 -2.3 1.6571 -1.98785e-016 0 3.18055e-015 -9.412 3.9771 -0.7758 3.42482 1.32465 -0.0626183 -0.7531 -40.938 0 0.000117508 0.717283 0.000978199 0 -40.1986 0 -3.4257 -2.04197 -0.0604716 8.88178e-016 -4.4182 9.239 6.47761e-025 0 -0 9.4119 3.9773 -0.7758 -3.42483 1.34017 0.0627307 0.7532 -40.9383 -2.22045e-016 -0.000193936 0.682302 -0.0013703 -8.88179e-016 -40.1986 0 3.42574 -2.02253 0.0595886 -8.88178e-016 -4.4182 9.239 -8.45714e-024 0 -7.40531e-025 
-1.95748 4.93098 10.3664 5.50498e-007 -72.0011 5.7351e-007 2.22045e-016 8.7983 -4.7612 -0.836116 12.6012 0.249351 0 8.0291 0.4195 -1.79803 25.1971 0.719851 0 9.9351 -2.2114 -1.79803 25.1971 0.719849 -4.44089e-016 22.3885 -0.4656 -0.0576428 0.0326815 -0.0751765 -0.0001 12.643 3.4389 -0.036693 0.057722 -0.0506907 2.2603 21.606 7.4023 -24.8737 4.83999 -31.2069 13.5163 -1.1332 -5.0146 75.9061 -3.25111 10.1412 -0.0995 -28.05 -0.2431 -24.3335 -54.098 -10.7947 0.0679 -23.3996 -0.1402 -6.88294 1.25904 -0.138057 0.7932 -9.069 2.5189 -4.41391e-032 -3.18055e-015 -7.95139e-016 -0.8272 -3.3923 0.5977 -3.18055e-015 -1.98785e-015 1.98785e-016 -0.5649 -2.3158 0.4082 -5.23829e-006 9.63331e-007 -3.09048e-006 0.9159 -9.2044 0.2193 -4.41391e-032 -3.18055e-015 -7.95139e-016 0.0117 -4.1944 -0.0248 -0.0128164 0.00231995 8.85679e-005 0.0071 -2.3249 -0.0142 -4.27069e-006 1.07405e-006 -2.52711e-006 0.6113 -8.7231 -2.0637 -4.41391e-032 -3.18055e-015 -7.95139e-016 -0.1927 -3.8059 -0.2383 -0.0160437 0.00298785 0.000851081 -0.1091 -2.1688 -0.1362 -1.06037e-006 7.89757e-007 -2.69273e-006 -0.6151 -8.0947 -3.5641 -4.41391e-032 -3.18055e-015 -7.95139e-016 -0.4882 -2.341 -0.6462 -0.0126239 0.00311794 0.00282254 -0.3575 -1.7167 -0.4742 1.60508e-006 2.06929e-007 -8.27369e-008 -1.42 -1.8761 1.4223 -4.41391e-032 -3.18055e-015 -7.95139e-016 -1.1471 -3.4929 2.6334 -3.18055e-015 -1.98785e-015 1.98785e-016 -0.823 -2.3 1.6571 -5.23829e-006 9.63331e-007 -3.09048e-006 -2.2603 21.606 7.4023 15.861 1.29731 34.2421 -13.5187 -1.1334 -5.0155 -82.0044 -17.026 -17.6909 0.0994 -28.0499 -0.2431 32.8548 -61.2141 18.9067 -0.0679 -23.3996 -0.1402 6.88132 1.2504 0.170872 -0.7932 -9.0691 2.5189 -3.97252e-031 3.18055e-015 7.15625e-015 0.8272 -3.3923 0.5977 -9.71059e-031 6.36111e-015 8.74653e-015 0.565 -2.3158 0.4082 -3.97252e-031 3.18055e-015 7.15625e-015 -0.916 -9.2044 0.2193 -3.97252e-031 3.18055e-015 7.15625e-015 -0.0117 -4.1944 -0.0248 0.01296 0.00231975 -8.67919e-005 -0.0071 -2.3249 -0.0142 -6.36111e-015 6.36111e-015 -0 -0.6113 -8.7231 -2.0637 -3.97252e-031 3.18055e-015 7.15625e-015 0.1927 -3.8059 -0.2383 0.0162979 0.00302878 -0.000872261 0.1091 -2.1688 -0.1362 1.06746e-005 -3.60376e-007 5.50052e-006 0.6151 -8.0947 -3.564 -3.97252e-031 3.18055e-015 7.15625e-015 0.4882 -2.341 -0.6462 0.0145585 0.00367588 -0.0032517 0.3574 -1.7166 -0.4742 6.36111e-015 0 1.27222e-014 1.4199 -1.8761 1.4221 -3.97252e-031 3.18055e-015 7.15625e-015 1.1472 -3.4929 2.6336 -9.71059e-031 6.36111e-015 8.74653e-015 0.8229 -2.3 1.6571 -3.97252e-031 3.18055e-015 7.15625e-015 -9.412 3.9771 -0.7758 -20.8781 -41.5172 -17.2203 -0.7531 -40.938 8.88178e-016 17.0119 82.0181 -18.3475 0 -40.1986 7.10543e-015 -7.66489 7.69453 -1.56606 3.55271e-015 -4.4182 9.239 3.23519e-007 7.64755e-008 1.62996e-006 9.4119 3.9773 -0.7758 11.6642 -13.4377 17.7834 0.7532 -40.9383 8.88178e-016 -2.01181 9.69398 0.6469 -1.77636e-015 -40.1986 1.77636e-015 8.46157 11.4135 1.0857 3.55271e-015 -4.4182 9.239 7.38758e-007 3.54508e-007 2.08962e-006 
-1.95748 4.93098 10.3664 2.57482e-006 -72.0011 2.25394e-006 -2.22045e-016 8.7983 -4.7612 -0.836115 12.6012 0.249351 0 8.0291 0.4195 -1.79803 25.1971 0.719851 4.44089e-016 9.9351 -2.2114 -1.79803 25.1971 0.71985 4.44089e-016 22.3885 -0.4656 -0.193886 0.0569593 -0.127742 -0.0001 12.643 3.4389 -0.0366916 0.0577248 -0.0506903 2.2603 21.606 7.4023 -24.8737 4.83999 -31.2069 13.5163 -1.1332 -5.0146 75.9099 -3.3831 10.2366 -0.0995 -28.05 -0.2431 -24.3338 -54.0982 -10.7949 0.0679 -23.3996 -0.1402 -6.88295 1.25905 -0.138024 0.7932 -9.069 2.5189 -1.07045e-006 9.60095e-007 -2.69051e-006 -0.8272 -3.3923 0.5977 6.62086e-032 3.97569e-016 -9.54166e-015 -0.5649 -2.3158 0.4082 -3.18055e-015 1.19271e-015 -1.19271e-014 0.9159 -9.2044 0.2193 -1.07045e-006 9.60095e-007 -2.69051e-006 0.0117 -4.1944 -0.0248 -0.0128266 0.00232514 8.35803e-005 0.0071 -2.3249 -0.0142 -3.63626e-006 5.18453e-007 -3.16059e-006 0.6113 -8.7231 -2.0637 -1.07045e-006 9.60095e-007 -2.69051e-006 -0.1927 -3.8059 -0.2383 -0.0160631 0.00299659 0.000854768 -0.1091 -2.1688 -0.1362 5.98636e-031 -5.56597e-015 6.16232e-015 -0.6151 -8.0947 -3.5641 -1.07045e-006 9.60095e-007 -2.69051e-006 -0.4882 -2.341 -0.6462 -0.0126087 0.00312374 0.00282622 -0.3575 -1.7167 -0.4742 6.36111e-015 -1.19271e-015 5.96354e-015 -1.42 -1.8761 1.4223 -1.07045e-006 9.60095e-007 -2.69051e-006 -1.1471 -3.4929 2.6334 6.62086e-032 3.97569e-016 -9.54166e-015 -0.823 -2.3 1.6571 -3.18055e-015 1.19271e-015 -1.19271e-014 -2.2603 21.606 7.4023 15.861 1.29731 34.2421 -13.5187 -1.1334 -5.0155 -81.7317 -16.9466 -17.8284 0.0994 -28.0499 -0.2431 32.8733 -61.2159 18.9087 -0.0679 -23.3996 -0.1402 6.88133 1.2504 0.170876 -0.7932 -9.0691 2.5189 1.48575e-006 3.92175e-007 -7.80787e-007 0.8272 -3.3923 0.5977 6.82319e-007 -3.71509e-006 8.22963e-006 0.565 -2.3158 0.4082 4.77083e-015 0 7.95139e-016 -0.916 -9.2044 0.2193 1.48575e-006 3.92175e-007 -7.80787e-007 -0.0117 -4.1944 -0.0248 0.0129022 0.00231313 -8.96711e-005 -0.0071 -2.3249 -0.0142 0 0 -1.43125e-014 -0.6113 -8.7231 -2.0637 1.48575e-006 3.92175e-007 -7.80787e-007 0.1927 -3.8059 -0.2383 0.0163307 0.00302648 -0.000875607 0.1091 -2.1688 -0.1362 -0 0 7.15625e-015 0.6151 -8.0947 -3.564 1.48575e-006 3.92175e-007 -7.80787e-007 0.4882 -2.341 -0.6462 0.014593 0.00368942 -0.00326741 0.3574 -1.7166 -0.4742 -4.77083e-015 3.18055e-015 1.11319e-014 1.4199 -1.8761 1.4221 1.48575e-006 3.92175e-007 -7.80787e-007 1.1472 -3.4929 2.6336 6.82319e-007 -3.71509e-006 8.22963e-006 0.8229 -2.3 1.6571 4.77083e-015 0 7.95139e-016 -9.412 3.9771 -0.7758 -20.8781 -41.5172 -17.2203 -0.7531 -40.938 -4.44089e-016 17.0118 82.018 -18.3475 0 -40.1986 0 -7.66489 7.69455 -1.56607 0 -4.4182 9.239 -7.75644e-007 7.90132e-007 3.44493e-007 9.4119 3.9773 -0.7758 11.6641 -13.438 17.7834 0.7532 -40.9383 0 -2.01166 9.69427 0.646908 -3.55271e-015 -40.1986 0 8.46157 11.4136 1.08572 3.55271e-015 -4.4182 9.239 -1.11673e-006 -3.95642e-007 -1.35149e-006 
-1.95748 4.93098 10.3664 5.50498e-007 -72.0011 5.7351e-007 2.22045e-016 8.7983 -4.7612 -0.836116 12.6012 0.249351 0 8.0291 0.4195 -1.79803 25.1971 0.719851 0 9.9351 -2.2114 -1.79803 25.1971 0.719849 -4.44089e-016 22.3885 -0.4656 -0.330145 0.0813688 -0.180267 -0.0001 12.643 3.4389 -0.0366903 0.0577215 -0.0506915 2.2603 21.606 7.4023 -24.8737 4.83999 -31.2069 13.5163 -1.1332 -5.0146 75.9145 -3.51433 10.332 -0.0995 -28.05 -0.2431 -24.3353 -54.099 -10.7955 0.0679 -23.3996 -0.1402 -6.88297 1.259 -0.138072 0.7932 -9.069 2.5189 -4.91868e-006 7.70452e-006 6.38332e-006 -0.8272 -3.3923 0.5977 3.18055e-015 -3.97569e-016 -5.36719e-015 -0.5649 -2.3158 0.4082 1.60562e-006 -1.17091e-005 -9.12296e-008 0.9159 -9.2044 0.2193 -4.91868e-006 7.70452e-006 6.38332e-006 0.0117 -4.1944 -0.0248 -0.0128562 0.00232923 8.80046e-005 0.0071 -2.3249 -0.0142 -3.21098e-006 -1.19269e-005 1.82327e-007 0.6113 -8.7231 -2.0637 -4.91868e-006 7.70452e-006 6.38332e-006 -0.1927 -3.8059 -0.2383 -0.0160453 0.00298632 0.000860525 -0.1091 -2.1688 -0.1362 -2.17383e-006 -9.57521e-006 2.15801e-006 -0.6151 -8.0947 -3.5641 -4.91868e-006 7.70452e-006 6.38332e-006 -0.4882 -2.341 -0.6462 -0.0125956 0.00312069 0.00283343 -0.3575 -1.7167 -0.4742 -2.21613e-006 -1.92387e-006 1.44499e-006 -1.42 -1.8761 1.4223 -4.91868e-006 7.70452e-006 6.38332e-006 -1.1471 -3.4929 2.6334 3.18055e-015 -3.97569e-016 -5.36719e-015 -0.823 -2.3 1.6571 1.60562e-006 -1.17091e-005 -9.12296e-008 -2.2603 21.606 7.4023 15.861 1.29731 34.2421 -13.5187 -1.1334 -5.0155 -81.4348 -16.878 -17.9597 0.0994 -28.0499 -0.2431 32.8644 -61.215 18.9078 -0.0679 -23.3996 -0.1402 6.88132 1.25039 0.170866 -0.7932 -9.0691 2.5189 -3.18055e-015 -1.53874e-007 -2.38542e-015 0.8272 -3.3923 0.5977 -4.76375e-006 -1.0698e-006 -4.01949e-006 0.565 -2.3158 0.4082 -1.59028e-015 0 7.95139e-016 -0.916 -9.2044 0.2193 -3.18055e-015 -1.53874e-007 -2.38542e-015 -0.0117 -4.1944 -0.0248 0.01293 0.00232605 -9.95843e-005 -0.0071 -2.3249 -0.0142 4.77083e-015 0 1.43125e-014 -0.6113 -8.7231 -2.0637 -3.18055e-015 -1.53874e-007 -2.38542e-015 0.1927 -3.8059 -0.2383 0.0163694 0.00304751 -0.000881025 0.1091 -2.1688 -0.1362 1.11293e-006 -1.66764e-006 -2.64462e-006 0.6151 -8.0947 -3.564 -3.18055e-015 -1.53874e-007 -2.38542e-015 0.4882 -2.341 -0.6462 0.0145866 0.00367967 -0.00327376 0.3574 -1.7166 -0.4742 -1.85985e-006 1.75542e-007 -1.08755e-006 1.4199 -1.8761 1.4221 -3.18055e-015 -1.53874e-007 -2.38542e-015 1.1472 -3.4929 2.6336 -4.76375e-006 -1.0698e-006 -4.01949e-006 0.8229 -2.3 1.6571 -1.59028e-015 0 7.95139e-016 -9.412 3.9771 -0.7758 -20.8781 -41.5172 -17.2203 -0.7531 -40.938 8.88178e-016 17.0119 82.0181 -18.3475 0 -40.1986 7.10543e-015 -7.66489 7.69453 -1.56606 3.55271e-015 -4.4182 9.239 3.23519e-007 7.64755e-008 1.62996e-006 9.4119 3.9773 -0.7758 11.6642 -13.4377 17.7834 0.7532 -40.9383 8.88178e-016 -2.01181 9.69398 0.6469 -1.77636e-015 -40.1986 1.77636e-015 8.46157 11.4135 1.0857 0 -4.4182 9.239 3.77971e-007 -2.24363e-007 -7.38129e-007 
